<?xml version="1.0" standalone="no"?>
<!DOCTYPE svg PUBLIC "-//W3C//DTD SVG 20010904//EN"
 "http://www.w3.org/TR/2001/REC-SVG-20010904/DTD/svg10.dtd">
<svg version="1.0" xmlns="http://www.w3.org/2000/svg"
 width="500.000000pt" height="500.000000pt" viewBox="0 0 500.000000 500.000000"
 preserveAspectRatio="xMidYMid meet">
<metadata>
Created by potrace 1.11, written by Peter Selinger 2001-2013
</metadata>
<g transform="translate(0.000000,500.000000) scale(0.100000,-0.100000)"
fill="#000000" stroke="none">
<path d="M2485 4951 c-9 -9 -53 -35 -185 -109 -25 -14 -130 -74 -235 -135
-197 -113 -246 -141 -305 -175 -72 -40 -266 -153 -280 -162 -8 -6 -26 -15 -39
-20 -13 -6 -44 -24 -68 -40 -24 -17 -46 -30 -48 -30 -3 0 -64 -34 -137 -77
-73 -42 -185 -105 -248 -141 -63 -35 -125 -71 -138 -80 -26 -17 -73 -43 -112
-63 -14 -7 -49 -28 -78 -46 -29 -18 -54 -33 -56 -33 -12 0 -178 -104 -182
-113 -2 -7 -5 -559 -6 -1229 -3 -1207 -3 -1216 17 -1229 30 -19 234 -139 280
-164 53 -30 134 -77 280 -163 66 -39 136 -80 155 -90 60 -32 170 -96 288 -165
62 -37 132 -78 155 -91 23 -13 205 -119 405 -235 200 -116 366 -211 369 -211
4 0 14 -6 22 -14 9 -7 38 -25 64 -40 26 -14 58 -33 70 -41 25 -16 17 -20 544
286 122 71 225 129 229 129 3 0 18 8 32 19 15 10 47 29 72 43 25 14 74 42 110
63 36 21 83 47 105 60 22 12 125 71 228 131 104 60 205 118 225 130 113 63
138 77 147 84 6 4 33 20 60 35 28 15 70 39 95 53 25 14 57 33 72 43 14 11 29
19 33 19 9 0 194 109 199 119 6 10 12 2449 6 2453 -3 2 -23 15 -45 29 -37 24
-67 42 -155 91 -75 43 -366 212 -390 227 -14 8 -38 23 -55 31 -16 9 -59 34
-95 55 -36 20 -85 49 -110 63 -25 14 -61 36 -80 49 -19 12 -40 23 -47 23 -7 0
-13 5 -13 10 0 6 -4 10 -9 10 -7 0 -158 85 -256 143 -77 47 -100 60 -128 76
-131 74 -378 218 -407 237 -19 13 -38 24 -41 24 -4 0 -48 25 -98 55 -51 30
-94 55 -96 55 -2 0 -26 14 -52 30 -52 33 -55 34 -68 21z m99 -207 c91 -52 221
-128 376 -219 58 -34 112 -65 120 -68 8 -4 44 -25 80 -46 78 -47 155 -92 230
-133 30 -16 62 -36 70 -43 8 -6 29 -19 45 -27 17 -8 57 -31 90 -50 33 -19 103
-60 155 -90 52 -30 106 -61 120 -69 14 -8 27 -16 30 -20 3 -3 21 -13 40 -23
19 -9 62 -33 95 -53 33 -19 80 -47 105 -61 25 -14 56 -32 70 -41 14 -10 36
-23 50 -29 14 -7 54 -30 90 -52 36 -21 81 -48 100 -58 l35 -20 -2 -918 c-1
-506 -2 -1021 -3 -1145 l0 -226 -51 -32 c-28 -17 -53 -31 -57 -31 -4 0 -24
-11 -44 -25 -20 -14 -56 -36 -80 -48 -24 -13 -75 -43 -115 -65 -39 -23 -87
-50 -105 -60 -40 -23 -268 -155 -398 -230 -52 -30 -108 -62 -125 -70 -16 -8
-41 -23 -55 -33 -14 -9 -46 -28 -70 -41 -25 -14 -169 -96 -320 -183 -151 -87
-300 -172 -330 -188 -30 -16 -62 -35 -70 -42 -8 -6 -23 -15 -32 -18 -10 -4
-43 -22 -73 -42 l-56 -35 -157 91 c-86 50 -194 113 -240 140 -45 27 -84 49
-86 49 -2 0 -35 19 -72 42 -38 23 -116 68 -174 101 -125 71 -111 63 -375 216
-115 67 -217 126 -225 131 -8 5 -87 51 -175 102 -88 51 -167 98 -176 103 -9 6
-40 24 -69 40 -29 17 -60 35 -69 40 -9 6 -46 27 -83 48 -37 21 -71 44 -75 50
-3 6 -6 220 -5 476 1 256 1 768 2 1138 l0 672 88 51 c48 28 94 55 102 60 8 5
31 18 50 28 19 11 62 35 95 54 130 76 402 232 440 253 22 12 79 45 127 74 48
28 90 51 93 51 4 0 25 13 48 28 23 16 56 36 72 44 17 8 59 32 95 53 36 21 85
49 110 63 25 14 104 59 175 101 72 41 146 84 166 95 20 12 63 36 95 54 33 19
84 47 114 64 30 17 66 39 80 49 14 10 27 19 29 19 2 0 40 -21 85 -46z"/>
<path d="M2457 4341 c-26 -14 -77 -44 -114 -65 -38 -22 -86 -49 -108 -61 -45
-26 -266 -153 -817 -471 -73 -43 -151 -87 -173 -99 -22 -12 -65 -37 -95 -54
-71 -41 -73 -42 -150 -88 -36 -21 -76 -44 -90 -51 l-25 -13 0 -936 0 -936 85
-50 c79 -46 184 -107 340 -197 36 -21 115 -68 176 -104 62 -36 115 -66 119
-66 5 0 23 -11 41 -25 18 -14 36 -25 39 -25 7 0 216 -121 287 -166 21 -13 39
-24 42 -24 2 0 93 -52 202 -116 311 -182 272 -165 312 -143 49 28 168 97 237
137 58 34 223 128 315 180 25 13 57 33 72 43 14 11 28 19 31 19 2 0 44 23 93
51 49 29 107 62 129 74 22 12 106 61 187 108 81 48 149 87 151 87 3 0 47 25
98 56 52 31 101 59 109 62 8 3 38 20 65 37 28 17 59 36 70 41 12 7 22 25 25
45 3 19 5 441 5 939 l0 904 -125 73 c-69 40 -136 79 -150 86 -36 20 -403 233
-510 297 -31 18 -317 184 -361 209 -56 31 -258 148 -279 162 -8 5 -54 31 -101
58 l-86 49 -46 -27z m22 -1229 c7 -12 33 -11 52 4 8 5 43 9 79 8 87 -2 358
-15 395 -19 17 -2 66 -6 110 -10 44 -3 132 -18 195 -31 63 -14 125 -28 138
-30 82 -16 216 -78 277 -128 61 -51 74 -85 78 -212 3 -102 2 -111 -20 -137
-14 -18 -23 -43 -24 -65 -1 -20 -2 -57 -4 -82 -1 -25 -6 -108 -10 -185 -8
-149 -15 -179 -46 -208 -48 -45 -76 -48 -366 -46 -286 1 -320 5 -420 49 -74
32 -121 88 -172 205 -76 174 -108 229 -168 292 -33 35 -75 43 -116 22 -28 -15
-57 -45 -57 -59 0 -6 -7 -13 -15 -16 -8 -4 -15 -10 -15 -14 0 -4 -15 -34 -33
-67 -18 -32 -39 -74 -47 -93 -37 -95 -85 -186 -109 -211 -38 -38 -115 -76
-188 -93 -76 -17 -561 -23 -620 -7 -53 15 -89 50 -101 96 -6 22 -13 114 -17
205 -8 216 -12 248 -36 279 -17 21 -20 38 -18 125 3 130 10 154 61 205 67 66
196 123 368 161 152 33 159 34 255 44 132 13 175 16 290 21 66 4 120 7 121 8
8 8 178 -3 183 -11z"/>
<path d="M2548 3055 c-2 -1 -113 -5 -248 -9 -135 -3 -267 -8 -295 -10 -135
-13 -157 -17 -225 -31 -14 -3 -34 -7 -45 -9 -11 -2 -40 -9 -65 -16 -25 -7 -56
-14 -70 -17 -45 -8 -179 -71 -218 -102 -68 -53 -94 -100 -94 -173 -1 -70 10
-298 17 -368 3 -25 6 -85 7 -135 2 -99 17 -140 56 -150 32 -8 572 -8 618 0 59
11 156 68 179 107 19 32 55 106 54 111 -2 6 47 102 54 105 4 2 7 11 7 19 0 21
76 141 111 177 36 36 95 57 126 45 13 -5 23 -6 23 -3 0 11 57 -26 84 -54 37
-40 60 -82 199 -368 24 -50 39 -67 81 -92 28 -17 70 -36 94 -42 56 -14 623
-16 650 -1 30 16 40 56 47 191 3 69 8 161 11 205 12 196 11 305 -4 335 -23 48
-98 110 -180 147 -42 20 -83 37 -91 38 -9 2 -16 4 -16 5 0 1 -10 3 -22 6 -13
2 -55 12 -95 23 -68 18 -99 23 -203 36 -93 12 -140 15 -320 20 -104 3 -198 8
-207 9 -9 2 -18 3 -20 1z"/>
</g>
</svg>
